<svg width="481" height="481" viewBox="0 0 481 481" fill="none" xmlns="http://www.w3.org/2000/svg">
<path d="M365.354 317.9C349.654 302.4 330.054 302.4 314.454 317.9C302.554 329.7 290.654 341.5 278.954 353.5C275.754 356.8 273.054 357.5 269.154 355.3C261.454 351.1 253.254 347.7 245.854 343.1C211.354 321.4 182.454 293.5 156.854 262.1C144.154 246.5 132.854 229.8 124.954 211C123.354 207.2 123.654 204.7 126.754 201.6C138.654 190.1 150.254 178.3 161.954 166.5C178.254 150.1 178.254 130.9 161.854 114.4C152.554 105 143.254 95.8 133.954 86.4C124.354 76.8 114.854 67.1 105.154 57.6C89.4541 42.3 69.8541 42.3 54.2541 57.7C42.2541 69.5 30.7541 81.6 18.5541 93.2C7.25412 103.9 1.55412 117 0.354122 132.3C-1.54588 157.2 4.55412 180.7 13.1541 203.6C30.7541 251 57.5541 293.1 90.0541 331.7C133.954 383.9 186.354 425.2 247.654 455C275.254 468.4 303.854 478.7 334.954 480.4C356.354 481.6 374.954 476.2 389.854 459.5C400.054 448.1 411.554 437.7 422.354 426.8C438.354 410.6 438.454 391 422.554 375C403.554 355.9 384.454 336.9 365.354 317.9Z" fill="currentColor"/>
<path d="M346.254 238.2L383.154 231.9C377.354 198 361.354 167.3 337.054 142.9C311.354 117.2 278.854 101 243.054 96L237.854 133.1C265.554 137 290.754 149.5 310.654 169.4C329.454 188.2 341.754 212 346.254 238.2Z" fill="currentColor"/>
<path d="M403.954 77.8C361.354 35.2 307.454 8.3 247.954 0L242.754 37.1C294.154 44.3 340.754 67.6 377.554 104.3C412.454 139.2 435.354 183.3 443.654 231.8L480.554 225.5C470.854 169.3 444.354 118.3 403.954 77.8Z" fill="currentColor"/>
</svg>
