<?xml version="1.0"?>
<svg xmlns="http://www.w3.org/2000/svg" viewBox="0 0 512 512" width="512" height="512"><g id="_10_Location" data-name="10 Location"><path d="M158.63,512a175.07,175.07,0,0,1-28.27-2.29c-31.35-5.11-60-18.47-82.74-38.65C13.8,441.11-3.36,399.44.54,356.74c3.13-34.31,19.85-66.49,47.08-90.6L314.27,30C336.14,10.66,365,0,395.62,0S455.09,10.66,477,30c31,27.46,42.56,68.1,30.13,106.07-5.84,17.86-16.87,34.33-31.9,47.64l-51.95,46L260.26,374c-15.35,13.59-32.67,22-50.11,24.43a70.26,70.26,0,0,1-56.9-17.36c-16.25-14.38-25.19-33.75-25.19-54.55S137,286.39,153.25,272L318,126.15a25,25,0,0,1,33.15,37.43L186.39,309.44c-5.37,4.76-8.33,10.84-8.33,17.12s3,12.36,8.33,17.12c14.78,13.08,33.4-.59,40.72-7.07l163-144.3,52-46a59.8,59.8,0,0,0,17.53-25.75c6.21-19,.32-38.85-15.77-53.09-26.12-23.14-70.27-23.14-96.39,0L80.77,303.58c-17.66,15.63-28.47,36.13-30.44,57.7C47.9,388,59,414.33,80.77,433.62c15.7,13.9,35.63,23.15,57.64,26.74,36,5.87,72.8-4.12,98.34-26.74L452.1,242.93a25,25,0,0,1,33.15,37.43L269.9,471.05C240,497.5,199.89,512,158.63,512Z"/></g></svg>
