<svg width="512" height="512" viewBox="0 0 512 512" fill="none" xmlns="http://www.w3.org/2000/svg">
<path d="M0 331.294H74.2249L21.7409 383.778L128.222 490.259L180.706 437.775V512H331.294V437.775L383.778 490.259L490.259 383.778L437.775 331.294H512V240.941H0V331.294ZM360.332 271.059C353.002 322.074 309.012 361.412 256 361.412C202.988 361.412 158.998 322.074 151.668 271.059H360.332ZM30.1176 271.059H121.312C128.827 338.728 186.359 391.529 256 391.529C325.641 391.529 383.173 338.728 390.688 271.059H481.882V301.176H415.76C413.206 308.096 410.853 316.234 405.507 327.407L400.908 337.02L447.668 383.778L383.778 447.668L337.017 400.905C330.187 404.056 323.171 407.985 311.216 412.211L301.176 415.76V481.882H210.824V415.76C203.724 413.14 195.745 410.844 184.597 405.508L174.984 400.905L128.222 447.668L64.3323 383.778L111.092 337.02C107.95 330.206 104.004 323.142 99.7888 311.216L96.2399 301.176H30.1176V271.059Z" fill="currentColor"/>
<path d="M331.294 165.647C331.294 139.714 318.116 116.802 298.103 103.255C309.281 92.3136 316.235 77.0741 316.235 60.2353C316.235 27.0216 289.214 0 256 0C222.786 0 195.765 27.0216 195.765 60.2353C195.765 77.0741 202.719 92.3136 213.896 103.255C193.884 116.802 180.706 139.714 180.706 165.647V210.824H331.294V165.647ZM225.882 60.2353C225.882 43.6284 239.393 30.1176 256 30.1176C272.607 30.1176 286.118 43.6284 286.118 60.2353C286.118 76.8422 272.607 90.3529 256 90.3529C239.393 90.3529 225.882 76.8422 225.882 60.2353ZM301.176 180.706H210.824V165.647C210.824 140.737 231.089 120.471 256 120.471C280.91 120.471 301.176 140.737 301.176 165.647V180.706Z" fill="currentColor"/>
<path d="M478.81 103.255C489.987 92.3136 496.941 77.0741 496.941 60.2353C496.941 27.0216 469.92 0 436.706 0C403.492 0 376.471 27.0216 376.471 60.2353C376.471 77.0741 383.425 92.3136 394.601 103.255C374.59 116.802 361.412 139.714 361.412 165.647V210.824H512V165.647C512 139.714 498.822 116.802 478.81 103.255ZM406.588 60.2353C406.588 43.6284 420.099 30.1176 436.706 30.1176C453.313 30.1176 466.824 43.6284 466.824 60.2353C466.824 76.8422 453.313 90.3529 436.706 90.3529C420.099 90.3529 406.588 76.8422 406.588 60.2353ZM481.882 180.706H391.529V165.647C391.529 140.737 411.795 120.471 436.706 120.471C461.616 120.471 481.882 140.737 481.882 165.647V180.706Z" fill="currentColor"/>
<path d="M150.588 165.647C150.588 139.714 137.41 116.802 117.398 103.255C128.575 92.3136 135.529 77.0741 135.529 60.2353C135.529 27.0216 108.508 1.51396e-05 75.2941 1.51396e-05C42.0804 1.51396e-05 15.0588 27.0216 15.0588 60.2353C15.0588 77.0741 22.013 92.3136 33.1897 103.255C13.1785 116.802 1.51396e-05 139.714 1.51396e-05 165.647V210.824H150.588V165.647ZM45.1765 60.2353C45.1765 43.6284 58.6873 30.1177 75.2941 30.1177C91.901 30.1177 105.412 43.6284 105.412 60.2353C105.412 76.8422 91.901 90.353 75.2941 90.353C58.6873 90.353 45.1765 76.8422 45.1765 60.2353ZM120.471 180.706H30.1177V165.647C30.1177 140.737 50.3828 120.471 75.2941 120.471C100.204 120.471 120.471 140.737 120.471 165.647V180.706Z" fill="currentColor"/>
</svg>
