<svg id="Capa_1" enable-background="new 0 0 511.941 511.941" height="512" viewBox="0 0 511.941 511.941" width="512" xmlns="http://www.w3.org/2000/svg"><g><path d="m421.559 30.176v-30.176h-30v30.176h-45.294v-30.176h-30v30.176h-45.294v-30.176h-30v30.176h-45.294v-30.176h-30v30.176h-45.294v-30.176h-30v30.176h-90.354v481.765h511.883v-481.765zm-331.177 30v30.177h30v-30.177h45.294v30.177h30v-30.177h45.294v30.177h30v-30.177h45.294v30.177h30v-30.177h45.294v30.177h30v-30.177h60.354v60.353h-451.883v-60.353zm-60.353 421.765v-331.412h451.883v331.412z"/><path d="m381.728 380.921-20.757-15.568-18 24 43.243 32.432 57.145-66.67-22.777-19.524z"/><path d="m135.5 210.882c-24.878 0-45.118 20.24-45.118 45.118s20.24 45.118 45.118 45.118 45.118-20.24 45.118-45.118-20.24-45.118-45.118-45.118zm0 60.236c-8.336 0-15.118-6.782-15.118-15.118s6.782-15.118 15.118-15.118 15.118 6.782 15.118 15.118-6.782 15.118-15.118 15.118z"/><path d="m255.971 210.882c-24.878 0-45.118 20.24-45.118 45.118s20.24 45.118 45.118 45.118 45.117-20.24 45.117-45.118-20.239-45.118-45.117-45.118zm0 60.236c-8.336 0-15.118-6.782-15.118-15.118s6.782-15.118 15.118-15.118 15.117 6.782 15.117 15.118-6.781 15.118-15.117 15.118z"/><path d="m135.5 331.353c-24.878 0-45.118 20.24-45.118 45.118s20.24 45.118 45.118 45.118 45.118-20.24 45.118-45.118-20.24-45.118-45.118-45.118zm0 60.235c-8.336 0-15.118-6.782-15.118-15.118s6.782-15.118 15.118-15.118 15.118 6.782 15.118 15.118-6.782 15.118-15.118 15.118z"/><path d="m255.971 331.353c-24.878 0-45.118 20.24-45.118 45.118s20.24 45.118 45.118 45.118 45.117-20.24 45.117-45.118-20.239-45.118-45.117-45.118zm0 60.235c-8.336 0-15.118-6.782-15.118-15.118s6.782-15.118 15.118-15.118 15.117 6.782 15.117 15.118-6.781 15.118-15.117 15.118z"/><path d="m383.971 301.118c24.878 0 45.117-20.24 45.117-45.118s-20.239-45.118-45.117-45.118-45.117 20.24-45.117 45.118 20.239 45.118 45.117 45.118zm0-60.236c8.336 0 15.117 6.782 15.117 15.118s-6.781 15.118-15.117 15.118-15.117-6.782-15.117-15.118 6.781-15.118 15.117-15.118z"/></g></svg>