<svg width="512" height="360" viewBox="0 0 512 360" fill="none" xmlns="http://www.w3.org/2000/svg">
<path d="M507.49 25.721L352.211 180L507.49 334.279C510.297 328.412 512 321.926 512 315V45C512 38.073 510.297 31.588 507.49 25.721Z" fill="currentColor"/>
<path d="M467 0H45C38.073 0 31.588 1.703 25.721 4.51L224.184 201.973C241.732 219.521 270.268 219.521 287.816 201.973L486.279 4.51C480.412 1.703 473.927 0 467 0Z" fill="currentColor"/>
<path d="M4.51 25.721C1.703 31.588 0 38.073 0 45V315C0 321.927 1.703 328.413 4.51 334.279L159.789 180L4.51 25.721Z" fill="currentColor"/>
<path d="M331 201.211L309.027 223.184C279.788 252.423 232.211 252.423 202.972 223.184L181 201.211L25.721 355.49C31.588 358.297 38.073 360 45 360H467C473.927 360 480.412 358.297 486.279 355.49L331 201.211Z" fill="currentColor"/>
</svg>
