<svg width="493" height="410" viewBox="0 0 493 410" fill="none" xmlns="http://www.w3.org/2000/svg">
<path d="M7.86391 223.772L185.544 401.456C190.616 406.528 197.376 409.312 204.584 409.312C211.8 409.312 218.556 406.524 223.628 401.456L239.76 385.32C244.828 380.256 247.62 373.492 247.62 366.28C247.62 359.072 244.828 352.08 239.76 347.016L136.104 243.132L465.424 243.132C480.272 243.132 492.004 231.508 492.004 216.656L492.004 193.844C492.004 178.992 480.272 166.196 465.424 166.196L134.928 166.196L239.756 61.732C244.824 56.66 247.616 50.08 247.616 42.868C247.616 35.664 244.824 28.988 239.756 23.92L223.624 7.83601C218.552 2.76401 211.796 6.02102e-06 204.58 5.39017e-06C197.372 4.76003e-06 190.612 2.79998 185.54 7.87198L7.85991 185.552C2.77591 190.64 -0.020073 197.432 -7.36608e-05 204.652C-0.0160743 211.896 2.77591 218.692 7.86391 223.772Z" fill="currentColor"/>
</svg>
