<svg width="466" height="479" viewBox="0 0 466 479" fill="none" xmlns="http://www.w3.org/2000/svg">
<path d="M451.575 325.1C461.375 312.6 466.075 299.2 465.475 285.4C464.875 270.2 458.075 258.3 452.475 251C458.975 234.8 461.475 209.3 439.775 189.5C423.875 175 396.875 168.5 359.475 170.3C333.175 171.5 311.175 176.4 310.275 176.6H310.175C305.175 177.5 299.875 178.6 294.475 179.8C294.075 173.4 295.175 157.5 306.975 121.7C320.975 79.1 320.175 46.5 304.375 24.7C287.775 1.8 261.275 0 253.475 0C245.975 0 239.075 3.1 234.175 8.8C223.075 21.7 224.375 45.5 225.775 56.5C212.575 91.9 175.575 178.7 144.275 202.8C143.675 203.2 143.175 203.7 142.675 204.2C133.475 213.9 127.275 224.4 123.075 233.6C117.175 230.4 110.475 228.6 103.275 228.6H42.2751C19.2751 228.6 0.675049 247.3 0.675049 270.2V432.7C0.675049 455.7 19.3751 474.3 42.2751 474.3H103.275C112.175 474.3 120.475 471.5 127.275 466.7L150.775 469.5C154.375 470 218.375 478.1 284.075 476.8C295.975 477.7 307.175 478.2 317.575 478.2C335.475 478.2 351.075 476.8 364.075 474C394.675 467.5 415.575 454.5 426.175 435.4C434.275 420.8 434.275 406.3 432.975 397.1C452.875 379.1 456.375 359.2 455.675 345.2C455.275 337.1 453.475 330.2 451.575 325.1ZM42.2751 447.3C34.175 447.3 27.675 440.7 27.675 432.7V270.1C27.675 262 34.2751 255.5 42.2751 255.5H103.275C111.375 255.5 117.875 262.1 117.875 270.1V432.6C117.875 440.7 111.275 447.2 103.275 447.2H42.2751V447.3ZM425.975 313.4C421.775 317.8 420.975 324.5 424.175 329.7C424.175 329.8 428.275 336.8 428.775 346.4C429.475 359.5 423.175 371.1 409.975 381C405.275 384.6 403.375 390.8 405.375 396.4C405.375 396.5 409.675 409.7 402.675 422.2C395.975 434.2 381.075 442.8 358.475 447.6C340.375 451.5 315.775 452.2 285.575 449.8C285.175 449.8 284.675 449.8 284.175 449.8C219.875 451.2 154.875 442.8 154.175 442.7H154.075L143.975 441.5C144.575 438.7 144.875 435.7 144.875 432.7V270.1C144.875 265.8 144.175 261.6 142.975 257.7C144.775 251 149.775 236.1 161.575 223.4C206.475 187.8 250.375 67.7 252.275 62.5C253.075 60.4 253.275 58.1 252.875 55.8C251.175 44.6 251.775 30.9 254.175 26.8C259.475 26.9 273.775 28.4 282.375 40.3C292.575 54.4 292.175 79.6 281.175 113C264.375 163.9 262.975 190.7 276.275 202.5C282.875 208.4 291.675 208.7 298.075 206.4C304.175 205 309.975 203.8 315.475 202.9C315.875 202.8 316.375 202.7 316.775 202.6C347.475 195.9 402.475 191.8 421.575 209.2C437.775 224 426.275 243.6 424.975 245.7C421.275 251.3 422.375 258.6 427.375 263.1C427.475 263.2 437.975 273.1 438.475 286.4C438.875 295.3 434.675 304.4 425.975 313.4Z" fill="currentColor"/>
</svg>
