<svg width="464" height="512" viewBox="0 0 464 512" fill="none" xmlns="http://www.w3.org/2000/svg">
<path d="M17.2903 49.5484H265.032V107.355C265.032 111.923 268.722 115.613 273.29 115.613H331.097V181.677H347.613V107.355C347.613 105.069 346.681 103.004 345.185 101.508L279.145 35.4677C277.641 33.9637 275.577 33.0323 273.29 33.0323H50.3226V16.5161H364.129V198.194H380.645V8.25806C380.645 3.68952 376.956 0 372.387 0H42.0645C37.4959 0 33.8064 3.68952 33.8064 8.25806V33.0323H9.03223C4.46369 33.0323 0.77417 36.7218 0.77417 41.2903V503.742C0.77417 508.31 4.46369 512 9.03223 512H289.806V495.484H17.2903V49.5484ZM281.548 61.2258L319.419 99.0968H281.548V61.2258Z" fill="currentColor"/>
<path d="M454.968 247.742H442.532C405.657 247.742 370.976 231.5 347.375 203.181L345.706 201.173C342.577 197.399 336.141 197.399 333.012 201.173L331.343 203.173C307.734 231.5 273.052 247.742 236.177 247.742H223.742C219.173 247.742 215.484 251.431 215.484 256V389.746C215.484 422.266 233.024 452.492 261.258 468.621L335.258 510.911C336.524 511.637 337.944 512 339.355 512C340.766 512 342.185 511.637 343.452 510.911L417.452 468.621C445.685 452.492 463.226 422.266 463.226 389.746V256C463.226 251.431 459.536 247.742 454.968 247.742ZM446.71 389.746C446.71 416.355 432.367 441.081 409.258 454.274L339.355 494.238L269.452 454.286C246.343 441.081 232 416.355 232 389.746V264.258H236.177C275.585 264.258 312.798 247.883 339.355 219.077C365.903 247.883 403.125 264.258 442.532 264.258H446.71V389.746Z" fill="currentColor"/>
<path d="M339.355 272.516C289.27 272.516 248.516 313.27 248.516 363.355C248.516 413.439 289.27 454.194 339.355 454.194C389.439 454.194 430.193 413.439 430.193 363.355C430.193 313.27 389.439 272.516 339.355 272.516ZM339.355 437.677C298.371 437.677 265.032 404.339 265.032 363.355C265.032 322.371 298.371 289.032 339.355 289.032C380.339 289.032 413.677 322.371 413.677 363.355C413.677 404.339 380.339 437.677 339.355 437.677Z" fill="currentColor"/>
<path d="M335.415 389.028L320.419 374.032L308.742 385.71L333.516 410.484C335.077 412.052 337.19 412.903 339.355 412.903C340.024 412.903 340.702 412.823 341.371 412.657C344.194 411.944 346.423 409.798 347.266 407.016L372.04 324.435L356.218 319.694L335.415 389.028Z" fill="currentColor"/>
<path d="M33.8064 132.129H248.516V148.645H33.8064V132.129Z" fill="currentColor"/>
<path d="M33.8064 165.161H248.516V181.677H33.8064V165.161Z" fill="currentColor"/>
<path d="M33.8064 198.194H248.516V214.71H33.8064V198.194Z" fill="currentColor"/>
<path d="M33.8064 231.226H198.968V247.742H33.8064V231.226Z" fill="currentColor"/>
<path d="M33.8064 264.258H198.968V280.774H33.8064V264.258Z" fill="currentColor"/>
<path d="M33.8064 297.29H198.968V313.806H33.8064V297.29Z" fill="currentColor"/>
<path d="M33.8064 396.387H198.968V412.903H33.8064V396.387Z" fill="currentColor"/>
<path d="M33.8064 429.419H198.968V445.935H33.8064V429.419Z" fill="currentColor"/>
<path d="M33.8064 462.452H198.968V478.968H33.8064V462.452Z" fill="currentColor"/>
<path d="M42.0645 66.0645H58.5806V82.5806H42.0645V66.0645Z" fill="currentColor"/>
<path d="M75.0967 66.0645H91.6129V82.5806H75.0967V66.0645Z" fill="currentColor"/>
<path d="M108.129 66.0645H124.645V82.5806H108.129V66.0645Z" fill="currentColor"/>
<path d="M141.161 66.0645H248.516V82.5806H141.161V66.0645Z" fill="currentColor"/>
</svg>
