<svg width="480" height="480" viewBox="0 0 480 480" fill="none" xmlns="http://www.w3.org/2000/svg">
<path fill-rule="evenodd" clip-rule="evenodd" d="M240 0C192.533 0 146.131 14.0758 106.663 40.4473C67.1955 66.8188 36.4341 104.302 18.269 148.156C0.103991 192.01 -4.64881 240.266 4.61164 286.822C13.8721 333.377 36.7299 376.141 70.2945 409.706C103.859 443.27 146.623 466.128 193.178 475.388C239.734 484.649 287.99 479.896 331.844 461.731C375.698 443.566 413.181 412.805 439.553 373.337C465.924 333.869 480 287.468 480 240C479.97 176.357 454.675 115.329 409.673 70.3271C364.671 25.3248 303.643 0.0296792 240 0ZM368 256H150.624L219.312 324.688L196.688 347.312L89.3761 240L196.688 132.688L219.312 155.312L150.624 224H368V256Z" fill="currentColor"/>
</svg>
