<svg width="384" height="512" viewBox="0 0 384 512" fill="none" xmlns="http://www.w3.org/2000/svg">
<path d="M192 0C86.144 0 0 86.7413 0 193.387C0 344.917 173.952 501.376 181.355 507.947C184.405 510.656 188.203 512 192 512C195.797 512 199.595 510.656 202.645 507.968C210.048 501.376 384 344.917 384 193.387C384 86.7413 297.856 0 192 0ZM192 298.667C133.184 298.667 85.3333 250.816 85.3333 192C85.3333 133.184 133.184 85.3333 192 85.3333C250.816 85.3333 298.667 133.184 298.667 192C298.667 250.816 250.816 298.667 192 298.667Z" fill="currentColor"/>
</svg>