<svg width="480" height="480" viewBox="0 0 480 480" fill="none" xmlns="http://www.w3.org/2000/svg">
<path fill-rule="evenodd" clip-rule="evenodd" d="M240 480C287.467 480 333.869 465.924 373.337 439.553C412.805 413.181 443.566 375.699 461.731 331.844C479.896 287.99 484.649 239.734 475.388 193.179C466.128 146.623 443.27 103.859 409.706 70.2946C376.141 36.73 333.377 13.8722 286.822 4.61177C240.266 -4.64869 192.01 0.104108 148.156 18.2691C104.302 36.4342 66.8187 67.1956 40.4472 106.663C14.0757 146.131 -9.69391e-05 192.533 -0.000101089 240C0.0295726 303.643 25.3247 364.671 70.327 409.673C115.329 454.675 176.357 479.971 240 480V480ZM112 224L329.376 224L260.688 155.312L283.312 132.688L390.624 240L283.312 347.312L260.688 324.688L329.376 256L112 256L112 224Z" fill="currentColor"/>
</svg>
