<svg id="Layer_1" enable-background="new 0 0 510 510" height="512" viewBox="0 0 510 510" width="512" xmlns="http://www.w3.org/2000/svg"><g><path d="m0 330h73.935l-52.279 52.279 106.065 106.065 52.279-52.279v73.935h150v-73.935l52.279 52.279 106.065-106.065-52.279-52.279h73.935v-90h-510zm358.924-60c-7.301 50.816-51.119 90-103.924 90s-96.623-39.184-103.924-90zm-328.924 0h90.838c7.486 67.405 64.793 120 134.162 120s126.676-52.595 134.162-120h90.838v30h-65.864c-2.544 6.892-4.888 14.999-10.213 26.128l-4.581 9.575 46.577 46.576-63.64 63.64-46.579-46.58c-6.803 3.139-13.791 7.052-25.7 11.262l-10 3.535v65.864h-90v-65.864c-7.072-2.61-15.02-4.897-26.124-10.212l-9.576-4.585-46.579 46.58-63.64-63.64 46.577-46.576c-3.13-6.787-7.06-13.823-11.259-25.703l-3.535-10h-65.864z"/><path d="m330 165c0-25.832-13.127-48.654-33.061-62.148 11.134-10.899 18.061-26.079 18.061-42.852 0-33.084-26.916-60-60-60s-60 26.916-60 60c0 16.773 6.927 31.953 18.06 42.852-19.933 13.494-33.06 36.316-33.06 62.148v45h150zm-105-105c0-16.542 13.458-30 30-30s30 13.458 30 30-13.458 30-30 30-30-13.458-30-30zm75 120h-90v-15c0-24.813 20.186-45 45-45 24.813 0 45 20.187 45 45z"/><path d="m476.94 102.852c11.133-10.899 18.06-26.079 18.06-42.852 0-33.084-26.916-60-60-60s-60 26.916-60 60c0 16.773 6.927 31.953 18.06 42.852-19.933 13.494-33.06 36.316-33.06 62.148v45h150v-45c0-25.832-13.127-48.654-33.06-62.148zm-71.94-42.852c0-16.542 13.458-30 30-30s30 13.458 30 30-13.458 30-30 30-30-13.458-30-30zm75 120h-90v-15c0-24.813 20.186-45 45-45 24.813 0 45 20.187 45 45z"/><path d="m150 165c0-25.832-13.127-48.654-33.061-62.148 11.134-10.899 18.061-26.079 18.061-42.852 0-33.084-26.916-60-60-60s-60 26.916-60 60c0 16.773 6.927 31.953 18.06 42.852-19.933 13.494-33.06 36.316-33.06 62.148v45h150zm-105-105c0-16.542 13.458-30 30-30s30 13.458 30 30-13.458 30-30 30-30-13.458-30-30zm75 120h-90v-15c0-24.813 20.186-45 45-45 24.813 0 45 20.187 45 45z"/></g></svg>