<svg width="512" height="286" viewBox="0 0 512 286" fill="none" xmlns="http://www.w3.org/2000/svg">
<path d="M503.467 43.401H430.165V17.801C430.165 8.04523 422.257 0.136963 412.501 0.136963H157.867C148.111 0.136963 140.203 8.04523 140.203 17.801V71.049H71.424C68.3627 71.0372 65.5307 72.665 64 75.3156L29.3547 135.817H8.53333C3.8208 135.817 0 139.638 0 144.35V239.924C0 244.636 3.8208 248.457 8.53333 248.457H33.4507C38.1984 273.412 62.2773 289.791 87.232 285.044C105.781 281.514 120.289 267.006 123.819 248.457H148.736C150.014 248.423 151.268 248.102 152.405 247.518C154.135 248.118 155.951 248.435 157.781 248.457H269.397C274.145 273.412 298.224 289.791 323.179 285.044C341.728 281.514 356.236 267.006 359.765 248.457H412.501C422.257 248.457 430.165 240.549 430.165 230.793V152.884H485.291C490.003 152.884 493.824 149.063 493.824 144.35C493.824 139.638 490.003 135.817 485.291 135.817H430.165V106.633H439.808C444.521 106.633 448.341 102.812 448.341 98.0996C448.341 93.3871 444.521 89.5663 439.808 89.5663H430.165V60.4676H503.467C508.179 60.4676 512 56.6468 512 51.9343C512 47.2218 508.179 43.401 503.467 43.401ZM76.3733 88.457H140.203V135.817H49.0667L76.3733 88.457ZM78.6773 268.852C78.6485 268.852 78.6208 268.852 78.592 268.852H78.6773C62.6539 268.852 49.664 255.862 49.664 239.838C49.664 223.815 62.6539 210.825 78.6773 210.825C94.7008 210.825 107.691 223.815 107.691 239.838C107.691 255.862 94.7008 268.852 78.6773 268.852ZM123.819 231.305C119.071 206.35 94.992 189.971 70.0373 194.718C51.488 198.248 36.9803 212.756 33.4507 231.305H17.0667V152.884H140.203V231.305H123.819ZM314.709 268.852C314.681 268.852 314.653 268.852 314.624 268.852H314.709C298.686 268.852 285.696 255.862 285.696 239.838C285.696 223.815 298.686 210.825 314.709 210.825C330.733 210.825 343.723 223.815 343.723 239.838C343.723 255.862 330.733 268.852 314.709 268.852ZM413.184 43.7423H372.395C367.682 43.7423 363.861 47.5631 363.861 52.2756C363.861 56.9882 367.682 60.809 372.395 60.809H413.013V89.6516H308.651C303.938 89.6516 300.117 93.4724 300.117 98.185C300.117 102.897 303.938 106.718 308.651 106.718H412.843V135.902H354.133C349.421 135.909 345.605 139.735 345.612 144.447C345.618 149.151 349.429 152.963 354.133 152.969H412.672V231.39H359.851C355.103 206.436 331.024 190.056 306.069 194.804C287.52 198.333 273.012 212.841 269.483 231.39L157.355 230.878L157.952 17.545L413.184 18.1423V43.7423Z" fill="currentColor"/>
</svg>
