<svg width="512" height="512" viewBox="0 0 512 512" fill="none" xmlns="http://www.w3.org/2000/svg">
<path d="M90.048 60.048V0H45.024C20.198 0 0 20.198 0 45.024V466.975C0 491.802 20.198 512 45.024 512H512V60.048H90.048ZM30 45.024C30 36.74 36.74 30 45.024 30H60.048V421.952H45.024C39.758 421.952 34.701 422.861 30 424.529V45.024ZM482 482H45.024C36.74 482 30 475.26 30 466.976C30 458.692 36.74 451.953 45.024 451.953H90.048V90.048H482V482Z" fill="currentColor"/>
<path d="M452 452V120.048H120.048V452H452ZM150.048 351.35H220.699V422H150.048V351.35ZM150.048 321.35V250.699H190.675V321.35H150.048ZM250.699 422V351.35H422V422H250.699ZM361.072 220.675H422V321.35H361.072V220.675ZM422 190.675H361.072V150.048H422V190.675ZM331.072 150.048V220.698H301.036V250.698H331.072V321.349H220.675V250.698H271.012V220.698H150.048V150.048H331.072Z" fill="currentColor"/>
</svg>
