<svg width="512" height="512" viewBox="0 0 512 512" fill="none" xmlns="http://www.w3.org/2000/svg">
<path d="M436.992 74.9529C337.003 -25.0061 174.912 -24.9821 74.9534 75.0079C-25.0056 174.998 -24.9816 337.088 75.0084 437.047C174.998 537.006 337.088 536.982 437.047 436.992C485.053 388.971 512.015 323.846 512 255.945C511.986 188.055 485.005 122.951 436.992 74.9529ZM387.703 356.605C387.692 356.616 387.681 356.628 387.669 356.639V356.554L374.698 369.439C357.923 386.426 333.492 393.415 310.271 387.871C286.876 381.609 264.636 371.641 244.394 358.346C225.588 346.327 208.16 332.277 192.426 316.447C177.949 302.076 164.943 286.296 153.599 269.343C141.191 251.101 131.37 231.229 124.415 210.292C116.442 185.696 123.049 158.707 141.482 140.575L156.671 125.386C160.894 121.144 167.756 121.129 171.997 125.352C172.008 125.363 172.02 125.374 172.031 125.386L219.988 173.343C224.23 177.566 224.245 184.428 220.022 188.669C220.011 188.68 220 188.691 219.988 188.703L191.828 216.863C183.748 224.855 182.732 237.555 189.439 246.73C199.624 260.708 210.895 273.861 223.146 286.069C236.805 299.787 251.654 312.266 267.519 323.36C276.686 329.754 289.114 328.676 297.044 320.8L324.265 293.152C328.488 288.91 335.35 288.895 339.591 293.118C339.602 293.129 339.613 293.14 339.625 293.152L387.668 341.28C391.911 345.502 391.926 352.363 387.703 356.605Z" fill="currentColor"/>
</svg>
