<svg width="439" height="439" viewBox="0 0 439 439" fill="none" xmlns="http://www.w3.org/2000/svg">
<path d="M259.522 219.693L430.33 48.8792C441.446 37.7685 441.446 19.8041 430.33 8.69337C419.219 -2.41732 401.255 -2.41732 390.144 8.69337L219.331 179.507L48.5228 8.69337C37.4069 -2.41732 19.4476 -2.41732 8.33693 8.69337C-2.77898 19.8041 -2.77898 37.7685 8.33693 48.8792L179.145 219.693L8.33693 390.506C-2.77898 401.617 -2.77898 419.581 8.33693 430.692C13.8741 436.234 21.1546 439.018 28.4299 439.018C35.7051 439.018 42.9804 436.234 48.5228 430.692L219.331 259.878L390.144 430.692C395.686 436.234 402.962 439.018 410.237 439.018C417.512 439.018 424.788 436.234 430.33 430.692C441.446 419.581 441.446 401.617 430.33 390.506L259.522 219.693Z" fill="currentColor"/>
</svg>
